<mxfile host="app.diagrams.net" modified="2023-05-23T00:51:33.839Z" agent="Mozilla/5.0 (Windows NT 10.0; Win64; x64) AppleWebKit/537.36 (KHTML, like Gecko) Chrome/113.0.0.0 Safari/537.36" etag="ErzYZl4idmuevQfKx3fd" version="21.3.2" type="github">
  <diagram name="PÃ¡gina-1" id="A2AZRzdNG7YGyre4TQex">
    <mxGraphModel dx="840" dy="377" grid="1" gridSize="10" guides="1" tooltips="1" connect="1" arrows="1" fold="1" page="1" pageScale="1" pageWidth="827" pageHeight="1169" math="0" shadow="0">
      <root>
        <mxCell id="0" />
        <mxCell id="1" parent="0" />
        <mxCell id="rs0tKsxsrcfkprE51n_u-1" value="&lt;font style=&quot;vertical-align: inherit;&quot;&gt;&lt;font style=&quot;vertical-align: inherit;&quot;&gt;Articulos&lt;br&gt;&lt;/font&gt;&lt;/font&gt;" style="rounded=0;whiteSpace=wrap;html=1;" vertex="1" parent="1">
          <mxGeometry x="343.5" y="117.5" width="70" height="30" as="geometry" />
        </mxCell>
        <mxCell id="rs0tKsxsrcfkprE51n_u-2" value="&lt;font style=&quot;vertical-align: inherit;&quot;&gt;&lt;font style=&quot;vertical-align: inherit;&quot;&gt;Colaboradores&lt;br&gt;&lt;/font&gt;&lt;/font&gt;" style="rounded=0;whiteSpace=wrap;html=1;" vertex="1" parent="1">
          <mxGeometry x="20" y="117.5" width="90" height="30" as="geometry" />
        </mxCell>
        <mxCell id="rs0tKsxsrcfkprE51n_u-3" value="&lt;font style=&quot;vertical-align: inherit;&quot;&gt;&lt;font style=&quot;vertical-align: inherit;&quot;&gt;escriben&lt;/font&gt;&lt;/font&gt;" style="rhombus;whiteSpace=wrap;html=1;" vertex="1" parent="1">
          <mxGeometry x="190" y="100" width="70" height="65" as="geometry" />
        </mxCell>
        <mxCell id="rs0tKsxsrcfkprE51n_u-4" value="" style="endArrow=none;html=1;rounded=0;exitX=1;exitY=0.5;exitDx=0;exitDy=0;entryX=0;entryY=0.5;entryDx=0;entryDy=0;" edge="1" parent="1" source="rs0tKsxsrcfkprE51n_u-2" target="rs0tKsxsrcfkprE51n_u-3">
          <mxGeometry width="50" height="50" relative="1" as="geometry">
            <mxPoint x="390" y="187.5" as="sourcePoint" />
            <mxPoint x="440" y="137.5" as="targetPoint" />
          </mxGeometry>
        </mxCell>
        <mxCell id="rs0tKsxsrcfkprE51n_u-5" value="" style="endArrow=none;html=1;rounded=0;entryX=0;entryY=0.5;entryDx=0;entryDy=0;exitX=1;exitY=0.5;exitDx=0;exitDy=0;" edge="1" parent="1" source="rs0tKsxsrcfkprE51n_u-3">
          <mxGeometry width="50" height="50" relative="1" as="geometry">
            <mxPoint x="280" y="147.5" as="sourcePoint" />
            <mxPoint x="343.5" y="132" as="targetPoint" />
          </mxGeometry>
        </mxCell>
        <mxCell id="rs0tKsxsrcfkprE51n_u-7" value="&lt;font style=&quot;vertical-align: inherit;&quot;&gt;&lt;font style=&quot;vertical-align: inherit;&quot;&gt;Categorias&lt;/font&gt;&lt;/font&gt;" style="rounded=0;whiteSpace=wrap;html=1;" vertex="1" parent="1">
          <mxGeometry x="640" y="117.5" width="70" height="30" as="geometry" />
        </mxCell>
        <mxCell id="rs0tKsxsrcfkprE51n_u-8" value="&lt;font style=&quot;vertical-align: inherit;&quot;&gt;&lt;font style=&quot;vertical-align: inherit;&quot;&gt;se&lt;br&gt;diferencian&lt;br&gt;&lt;br&gt;&lt;/font&gt;&lt;/font&gt;" style="rhombus;whiteSpace=wrap;html=1;" vertex="1" parent="1">
          <mxGeometry x="490" y="97.5" width="70" height="70" as="geometry" />
        </mxCell>
        <mxCell id="rs0tKsxsrcfkprE51n_u-9" value="" style="endArrow=none;html=1;rounded=0;exitX=1;exitY=0.5;exitDx=0;exitDy=0;entryX=0;entryY=0.5;entryDx=0;entryDy=0;" edge="1" parent="1">
          <mxGeometry width="50" height="50" relative="1" as="geometry">
            <mxPoint x="414" y="132" as="sourcePoint" />
            <mxPoint x="494" y="132" as="targetPoint" />
          </mxGeometry>
        </mxCell>
        <mxCell id="rs0tKsxsrcfkprE51n_u-10" value="" style="endArrow=none;html=1;rounded=0;exitX=1;exitY=0.5;exitDx=0;exitDy=0;entryX=0;entryY=0.5;entryDx=0;entryDy=0;" edge="1" parent="1">
          <mxGeometry width="50" height="50" relative="1" as="geometry">
            <mxPoint x="560" y="132" as="sourcePoint" />
            <mxPoint x="640" y="132" as="targetPoint" />
          </mxGeometry>
        </mxCell>
      </root>
    </mxGraphModel>
  </diagram>
</mxfile>
